<?xml version="1.0" standalone="no"?>
<!DOCTYPE svg PUBLIC "-//W3C//DTD SVG 20010904//EN"
 "http://www.w3.org/TR/2001/REC-SVG-20010904/DTD/svg10.dtd">
<svg version="1.0" xmlns="http://www.w3.org/2000/svg"
 width="260.000000pt" height="260.000000pt" viewBox="0 0 260.000000 260.000000"
 preserveAspectRatio="xMidYMid meet">
<metadata>
Created by potrace 1.11, written by Peter Selinger 2001-2013
</metadata>
<g transform="translate(0.000000,260.000000) scale(0.100000,-0.100000)"
fill="#000000" stroke="none">
<path d="M133 2223 c-10 -4 -13 -191 -13 -891 0 -488 3 -897 6 -909 l6 -23
239 0 c149 0 240 4 244 10 3 6 3 19 0 30 -6 19 -15 20 -171 20 l-164 0 0 879
0 878 -46 7 c-53 7 -83 7 -101 -1z"/>
<path d="M1145 2211 c-70 -31 -131 -123 -155 -232 -16 -74 -8 -292 15 -374 21
-78 56 -155 106 -231 21 -33 39 -70 39 -82 0 -12 -20 -68 -45 -124 -48 -108
-194 -378 -204 -378 -3 0 -26 50 -50 111 -44 112 -59 131 -86 109 -23 -19 -19
-35 41 -166 l55 -121 -75 -113 c-42 -62 -76 -117 -76 -122 0 -14 75 -88 89
-88 6 0 36 35 67 78 32 42 61 81 65 86 5 6 17 -2 30 -18 105 -134 234 -174
349 -110 95 53 132 137 131 297 0 147 -46 316 -115 426 -14 22 -26 46 -26 53
0 6 27 91 59 187 82 242 96 314 96 491 0 132 -2 149 -24 193 -27 54 -63 87
-132 123 -57 29 -100 30 -154 5z m117 -81 c85 -91 75 -305 -28 -611 -55 -161
-49 -160 -115 -24 -60 124 -82 227 -76 354 6 124 25 194 70 253 57 74 98 82
149 28z m46 -1087 c31 -82 57 -177 67 -254 9 -58 -10 -184 -33 -223 -25 -43
-83 -86 -125 -93 -74 -12 -193 74 -213 153 -4 16 22 73 97 206 56 101 116 207
132 236 15 28 32 52 37 52 5 0 22 -35 38 -77z"/>
<path d="M1696 2218 c-3 -7 -7 -175 -10 -373 -7 -381 -21 -930 -32 -1230 -8
-222 -9 -220 100 -209 39 3 74 9 78 13 12 11 23 503 22 924 -1 208 -1 377 1
375 2 -2 15 -84 30 -183 14 -99 44 -270 66 -380 21 -110 52 -283 69 -384 32
-194 38 -214 71 -232 40 -21 55 11 98 216 50 239 80 415 127 725 20 135 40
263 44 285 l7 40 6 -35 c3 -19 8 -107 11 -195 11 -318 58 -1141 67 -1162 10
-27 44 -30 53 -6 4 9 2 96 -3 193 -6 96 -15 297 -21 445 -13 328 -26 580 -40
780 -6 83 -12 201 -13 263 -2 96 -5 116 -20 127 -17 12 -53 10 -61 -4 -4 -6
-25 -154 -111 -778 -23 -165 -120 -691 -129 -700 -2 -2 -7 18 -11 44 -4 26
-24 141 -46 256 -36 196 -105 642 -150 971 -11 81 -26 165 -32 185 l-12 36
-78 3 c-56 2 -78 -1 -81 -10z"/>
</g>
</svg>
